<?xml version="1.0" encoding="UTF-8"?>
<svg xmlns="http://www.w3.org/2000/svg" xmlns:xlink="http://www.w3.org/1999/xlink" viewBox="0 0 812 509.53">
  <defs>
    <style>
      .cls-1 {
        fill: url(#linear-gradient);
      }

      .cls-2 {
        fill: #54937c;
      }

      .cls-3 {
        fill: #9b6a14;
      }

      .cls-4 {
        fill: #fff;
      }

      .cls-5 {
        fill: #fefefe;
      }

      .cls-6 {
        fill: #a8633d;
      }

      .cls-7 {
        fill: #a15618;
        stroke: #ab8265;
        stroke-miterlimit: 10;
      }
    </style>
    <linearGradient id="linear-gradient" x1="380.48" y1="202.73" x2="649.26" y2="202.73" gradientUnits="userSpaceOnUse">
      <stop offset="0" stop-color="#fff"/>
      <stop offset="1" stop-color="#54937c"/>
    </linearGradient>
  </defs>
  <g id="Layer_1" data-name="Layer 1">
    <path class="cls-7" d="M576.27.5h10.99l8.06,1.46,5.49,2.2,4.03,2.93,2.93,2.93,2.93,4.76,1.46,3.66.37,2.56v3.3l-.73,4.39-2.2,5.86-2.93,5.49-3.66,5.13-3.3,4.39-4.76,5.86-5.13,5.13-5.13,4.03-6.59,5.13-5.86,4.03-7.69,5.13-7.69,4.76-9.89,5.49-10.62,5.13-9.16,3.66-10.99,3.66-8.79,2.2-12.08,2.2-18.68,2.56-13.55,1.46-11.35.73h-18.31l-16.11-1.1-14.65-1.83-16.11-2.93-13.18-3.3-13.18-4.39-1.83-.73-1.83.37-5.13,3.66-5.49,4.39-5.13,4.03-5.49,4.76-7.32,7.32-2.56,2.93-4.76,5.49-4.03,4.76-5.13,6.23-19.78,24.17-4.76,5.86-3.3,4.03-5.13,6.23-4.03,5.13-4.39,5.49-4.39,5.86-4.76,6.59-5.86,9.16-4.76,8.42-7.32,14.28-2.93,6.23-2.56,5.13-3.66,8.79-2.2,6.59-1.1,6.23-.37,8.79-.73,3.66-1.83,1.83h-3.3l-5.86-1.46-3.66-1.83-1.46-1.83-.73-2.93-2.2-24.54-.73-6.96-1.1-17.21-.37-9.16v-19.04l.73-15.38,1.1-13.18,1.83-14.28,2.93-16.48,3.3-13.92,2.56-9.52,4.39-13.92,5.13-13.55,3.66-8.42.73-.37,3.66,1.46,5.49,4.76,3.66,2.93,3.66,3.3-1.1,4.03-5.13,13.92-3.66,11.72-3.3,12.45-3.3,15.75-2.2,12.08-3.3,23.44-1.1,9.89v20.87l.73,13.18.37,6.23h.73l.73-2.2,5.13-9.52,4.39-8.06,6.23-12.82,4.76-8.42,6.23-10.62,5.13-8.06,5.86-9.16,6.59-9.89,4.39-6.23,2.93-4.03,5.13-6.96,7.32-9.52,4.03-5.13,2.93-3.66,4.03-5.13,4.76-5.86,2.93-3.66,5.13-6.23,4.03-4.76,3.3-4.03,4.39-4.76,2.56-2.93,3.3-3.66,2.56-2.93,2.2-1.83,1.83.73,2.2,1.1,2.2,2.56,5.49,4.03,5.49,2.93,7.69,2.93,9.16,2.93,16.85,4.39,11.35,2.2,8.42,1.1,10.99.73h17.58l9.52-.73,22.34-2.56,13.18-2.2,10.62-2.2,10.25-2.93,15.38-5.86,12.08-4.76,7.32-3.3,6.96-3.3,8.42-4.76,5.86-3.66,6.96-4.76,6.96-5.13,5.86-4.76,4.03-3.3,7.32-6.59,2.93-3.66,1.46-2.93.73-4.76-.73-3.66-1.1-1.83-5.13-2.56-5.49-1.1h-9.89l-11.35,1.46-10.62,2.2-12.08,3.3-13.18,4.39-11.35,4.03-15.01,5.86-16.11,6.59-9.89,4.39-12.82,5.86-12.08,5.86-8.42,4.76-5.49,3.3-2.2-.37-1.1-1.46.37-1.83,4.39-5.49,3.66-4.76,4.76-5.86,5.13-6.96,3.3-4.39,2.93-1.46,5.86-2.56,9.16-4.39,15.01-6.23,7.69-3.3,9.52-3.66,9.89-3.66,13.92-4.76,8.06-2.2,10.25-2.56,8.06-1.83,14.28-2.2,5.86-.73Z"/>
    <path class="cls-6" d="M173.43,73.01c1.64-.14,5.04-.19,6.59.37.62.22,1.75.98,2.2,1.46.67.73,1.79,2.4,2.2,3.3,6.34,16.98-5.46,33.42-14.65,46.88-20.81,29.2-50.44,50.8-79.1,71.78-1.44,1.13-3.93,2.65-5.13,4.03-2.54,7.01-2.97,15.66-2.93,23.07,1,16,.1,38.42,15.75,47.61,7.16,1.95,14.66-2.85,20.88-5.86,12.09-6.89,23.58-17.52,29.66-30.03,3.08-2.01,8.21-2.59,11.72-3.66,3.77-.72,10.16-2.91,13.92-2.56.78,3.96-3.37,9.14-4.76,12.82-2.67,5.09-6.15,10.28-9.89,14.65-10.82,12.15-23.08,25.07-39.18,29.66-25.51,7.97-42.21-10.62-47.24-34.06-2.18-12.52-2.51-27.58-1.83-40.28,1.81-5.13-4.62.95-5.86,2.56-15.84,12.35-33.57,23.18-50.17,34.42-3.54,1.95-10.95,10.41-14.65,8.79-2.63-3.42.66-25.56,4.39-27.83,15.81-10.21,38.54-24.41,55.3-34.79,24.23-12.3,10.79-3.59,20.87-26.37,9-22.51,23.14-42.86,38.82-61.16,11.55-11.48,26.48-22.96,41.38-31.13,1.34-.63,4.09-1.73,5.49-2.2,1.52-.5,4.63-1.32,6.23-1.46Z"/>
    <path class="cls-6" d="M604.83,53.97l1.46.37.73,9.52,1.46,6.96,3.3,8.79,3.3,6.96,2.93,4.39,3.66,4.76,3.3,3.66,7.32,7.32,2.93,2.56,3.66,3.3,5.86,5.49,10.25,10.25,2.56,2.93,4.03,4.76,4.03,5.49,4.39,6.96,2.93,5.49,2.93,7.32,2.2,7.32,1.1,5.49.37,3.3v4.76l-.73,7.69-1.83,7.32-2.2,5.86-2.93,5.86-5.49,9.89-3.3,5.86-5.13,7.32-2.93,4.03-4.39,4.39-3.3,4.03-16.11,16.11-4.03,3.3-4.76,3.66-6.59,5.13-5.13,3.66-9.52,5.49-6.59,3.66-9.16,4.39-10.25,4.03-12.08,4.03-8.79,2.2-14.65,2.56-12.45,1.46-13.55,1.1-9.52.37h-10.25l-12.45-.73-15.01-1.83-13.18-2.56-9.52-2.56-9.89-3.3-8.79-3.66-9.16-4.39-8.06-4.76-6.96-4.76-6.23-4.76-5.13-4.39-3.66-3.3-6.96-6.96-2.56-2.93-2.56-2.56-4.03-5.13-3.66-4.76-3.3-4.39-4.76-9.16-3.66-6.23-2.56-5.86-1.46-4.76-1.46-7.69v-9.16l2.2-11.35,2.56-9.16,3.3-7.69,4.76-8.79,5.49-8.06,3.3-4.03,4.39-5.13,3.3-4.03,4.39-4.39,5.49-3.66,4.03-1.83,4.03-.73h5.49l2.2,1.1.73,1.46-.37,2.2-2.2,2.56-4.03,2.93-4.39,4.03-5.86,5.86-3.66,4.76-4.39,6.23-4.76,6.59-4.03,7.69-2.93,7.69-1.83,7.69-1.1,8.42v9.16l1.1,8.79,2.2,9.16,2.56,7.69,2.56,4.76,4.39,6.23,4.03,5.13,4.76,5.49,4.39,4.39,9.52,7.32,5.49,3.3,12.82,6.59,12.08,5.49,8.42,3.3,9.52,2.93,9.89,2.2,8.06,1.46,15.01,2.2,12.82,1.1,6.96.37h13.92l11.35-.73,12.45-1.83,10.25-2.2,7.69-2.2,8.79-3.66,18.68-8.79,13.92-7.32,6.23-4.39,6.23-4.76,5.13-4.03,5.49-4.76,4.76-4.39,1.46-1.46h.73v-.73l1.83-1.83,3.3-3.66,4.76-6.23,2.93-4.03,2.93-4.39,2.2-3.66,2.93-6.23,3.66-10.99,1.1-4.03.37-6.59v-12.08l-.73-6.59-2.2-9.52-2.93-8.06-4.03-6.96-2.56-4.39-5.13-6.59-3.66-4.76-4.39-5.13-2.93-3.3-4.76-6.59-4.76-7.32-3.66-6.59-5.13-9.89-3.3-7.69-2.56-8.42-1.83-8.42-.37-2.56v-4.39l1.1-3.66,1.83-1.83,2.2-.73Z"/>
    <path class="cls-5" d="M172.7,85.83l.73.37c-2.39,7.5-7.74,15.99-12.82,21.97-4.06,5.64-9.64,13.64-13.55,19.41-6.28,8.28-13.76,16.96-21.61,23.8-9.99,9.12-22.28,17.36-32.96,25.63h-.73c5.82-28.9,53.09-81.21,80.93-91.19Z"/>
    <path class="cls-2" d="M163.55,371.47h3.3l3.3.73,3.66,2.2,2.56,3.66,1.46,4.39,1.46,8.42,1.46,8.79,1.46,4.39,1.46,2.56,1.46.73,2.2-.37,1.46-1.46,1.83.37-.37,2.2-4.39,4.76-1.46.73-2.56-.37-2.2-1.1-1.83-1.46-2.2-3.3-3.3,2.2-5.86,2.93-4.03,1.1h-4.39l-4.39-1.1-2.2-1.46-1.83-1.83-1.46-2.2-.37-1.1v-5.13l1.83-3.66,3.3-2.93,4.39-2.2,12.82-4.03.73-.37-1.1-5.86-1.83-3.66-1.46-1.1-2.56-.37-3.66,1.1-1.83,1.46-1.46,2.56-.37,3.3-.37,1.83-.73.73h-1.1l-3.3-4.39-1.46-2.2,4.39-4.39,4.39-3.3,3.3-1.46,1.83-.37Z"/>
    <path class="cls-2" d="M392.79,342.91l1.1,1.1.37,32.23,5.49-2.56,4.39-1.46,2.56-.37h3.3l4.03,1.1,3.66,1.83,3.66,3.3,1.83,3.3.37,1.46.37,24.9,1.1,2.2,1.83,1.46v1.1l-.73.37h-11.72l-1.1-.37.37-1.46,2.2-1.83.37-7.69v-15.38l-.73-3.66-2.2-2.56-2.93-1.46-1.46-.37h-6.23l-5.86,1.46-2.56,1.1v27.47l1.46,2.2,1.46,1.1v1.1l-.73.37h-12.08l-.73-.37.37-1.46,1.83-1.46.73-1.46v-54.93l-1.46-1.46-1.83-1.1.37-1.46,6.96-5.13,2.2-1.1Z"/>
    <path class="cls-2" d="M426.85,467.42h4.39l4.39,1.1,4.39,2.56,4.03,4.03,2.2,3.66.37,1.83-2.93,1.46-16.48,5.86-10.99,4.03h-1.1l1.1,2.56,2.2,3.3,3.3,2.56,4.76,1.83,5.49.37,4.39-1.1,4.39-2.56,2.56-2.56h1.83l.73.73-.37,1.46-2.56,3.3-3.3,3.66-4.03,2.56-3.3,1.1-2.2.37h-3.3l-4.39-.73-3.66-1.46-4.76-3.3-2.56-2.93-2.2-3.66-1.46-4.39-.37-3.3v-3.3l1.1-5.13,2.56-5.13,3.66-4.03,4.03-2.56,5.49-1.83,2.56-.37Z"/>
    <path class="cls-2" d="M495.7,371.47h5.49l4.76,1.46,4.76,3.3,3.3,3.66,1.83,3.3-.37,1.83-5.86,2.2-24.17,8.79h-1.1l2.2,4.39,2.93,2.93,5.13,2.56,4.39.73,4.39-.37,4.39-1.83,2.93-2.2,1.83-1.83,2.56.37.37.73-1.46,2.2-2.93,3.66-2.93,2.93-5.13,2.56-4.03.73-5.49-.37-4.39-1.46-3.66-2.2-3.66-3.3-2.56-3.66-1.46-3.66-.73-2.93v-6.96l1.1-4.39,1.83-3.66,2.93-3.66,4.39-3.3,4.76-1.83,3.66-.73Z"/>
    <path class="cls-2" d="M184.42,467.42h4.39l4.03,1.1,3.66,1.83,4.39,4.03,2.56,3.66.73,2.56-2.93,1.46-13.55,4.76-10.99,4.03-2.93,1.1h-1.1l1.1,2.93,2.2,2.93,3.3,2.56,3.3,1.46,4.03.73h2.93l4.39-1.1,3.66-2.2,3.3-2.93h1.83l.73,1.46-2.93,4.03-3.66,4.03-3.66,2.2-3.3,1.1-2.2.37h-3.66l-5.13-1.1-5.13-2.56-4.03-3.66-2.56-4.03-1.46-3.66-.73-3.66v-4.39l.73-4.39,1.83-4.03,2.2-3.3,2.56-2.56,4.03-2.56,4.03-1.46,4.03-.73Z"/>
    <path class="cls-2" d="M77.85,371.47h5.49l4.76,1.46,4.39,2.93,2.56,2.56,2.56,4.03.37,2.56-30.4,10.99h-1.1l2.56,4.76,2.56,2.56,5.13,2.56,4.39.73,4.39-.37,3.66-1.46,3.3-2.2,2.2-2.2h2.2l.73,1.1-2.2,3.3-3.3,3.66-2.93,2.56-4.03,1.83-4.03.73-5.13-.37-4.76-1.46-3.66-2.2-3.66-3.3-2.56-3.66-1.83-5.13-.37-1.83v-6.23l1.1-4.39,2.56-5.13,2.93-3.3,4.39-2.93,5.49-1.83,2.2-.37Z"/>
    <path class="cls-2" d="M590.18,371.84h3.3l4.03,1.1,4.03,2.2,2.93,2.56,1.83,2.93.73,2.93.37,24.54,1.46,2.2,1.46,1.1v1.1l-.73.37h-12.08l-.73-.37.37-1.46,2.2-1.83.37-3.66v-19.78l-.73-3.3-2.2-2.56-2.93-1.46-1.46-.37h-6.23l-3.66.73-4.76,1.83v27.47l1.46,2.2,1.46,1.46v.73l-.73.37h-11.72l-1.1-.37v-1.46l1.83-1.1.73-1.1.37-1.83v-24.17l-.37-1.46-2.93-1.83.37-1.46,6.96-5.13,1.46-.73,1.46.37.73,3.66,5.49-2.56,4.39-1.46,2.56-.37Z"/>
    <path class="cls-2" d="M81.52,468.15h7.32l.37,1.46-1.83,1.83,1.1,3.3,5.49,10.62,4.76,9.16,1.46,1.46,4.39-8.42,5.86-11.72,1.46-4.03v-1.1l-1.83-.73v-1.46l.73-.37h6.23l2.56.37-.37,2.56-4.39,9.16-13.18,26.37-2.56,2.2-1.83-.73-1.83-2.93-13.18-25.27-3.66-6.96-1.46-3.3v-1.1l4.39-.37Z"/>
    <path class="cls-2" d="M267.92,467.42l7.32.37,3.66.73,1.1.73v8.06l-1.46.37-1.83-1.83-2.56-2.2-4.03-1.46h-4.76l-2.93,1.46-1.1,1.46v2.93l2.2,2.56,9.16,5.13,4.39,2.93,2.93,2.93,1.46,3.66v5.13l-1.46,3.66-2.2,2.56-2.93,1.83-4.39,1.1h-6.59l-6.23-1.1-2.56-1.1-1.1-4.39v-2.93l.73-.73,2.2.37,2.2,1.83,4.39,1.83,2.56.73h5.13l2.2-1.1,1.1-1.46.37-1.1v-2.56l-1.46-2.2-1.83-1.46-8.79-4.76-3.66-2.56-2.93-3.3-1.46-3.3v-4.76l1.46-3.3,1.83-1.83,3.66-1.83,2.56-.73,3.66-.37Z"/>
    <path class="cls-2" d="M344.82,467.42l7.32.37,3.66.73,1.1.73v8.06l-1.46.37-1.83-1.83-2.56-2.2-4.03-1.46h-4.76l-2.93,1.46-1.1,1.83v2.56l2.2,2.56,9.16,5.13,4.39,2.93,2.93,2.93,1.46,3.66v5.13l-1.46,3.66-2.2,2.56-2.93,1.83-4.39,1.1h-6.59l-6.23-1.1-2.56-1.1-1.1-4.76v-2.56l.73-.73,2.2.37,2.2,1.83,4.39,1.83,2.56.73h5.13l2.2-1.1,1.1-1.46.37-1.1v-2.56l-1.46-2.2-1.83-1.46-8.79-4.76-3.66-2.56-2.93-3.3-1.46-3.3v-4.76l1.46-3.3,2.93-2.56,3.66-1.46,5.13-.73Z"/>
    <path class="cls-2" d="M577,467.42l7.69.37,3.66.73,1.1.73v7.32l-.73,1.1-1.83-.73-1.83-2.2-2.93-1.83-2.93-.73h-4.39l-2.93,1.46-1.1,1.46-.37,2.2,1.1,2.2,5.13,3.3,8.42,4.76,4.03,3.66,1.46,2.93.37,1.83v3.66l-1.1,3.66-3.3,3.66-3.66,1.83-2.93.73h-6.59l-6.59-1.1-2.2-1.1-.73-2.2-.37-1.83v-3.3l.73-.73,1.83.37,3.66,2.56,5.49,1.83h5.49l2.56-1.46,1.1-2.56-.37-2.93-1.83-2.2-11.72-6.59-3.66-3.3-1.46-1.83-1.1-2.56v-5.49l1.83-3.66,1.83-1.46,2.93-1.46,2.93-.73,3.3-.37Z"/>
    <path class="cls-2" d="M506.32,439.22h1.46l.37.73.37,63.35,1.1,2.56,1.83,1.46-.37,1.46h-12.45l-.73-.37.73-1.83,1.83-1.46.37-.73v-56.03l-2.93-1.83.37-1.46,6.59-5.13,1.46-.73Z"/>
    <path class="cls-2" d="M264.62,371.84h1.83l1.46,3.66,1.1,4.03v2.2l-.37.37h-1.83l-2.56-2.2-1.46-.37h-2.93l-4.03,1.46-3.66,2.93-1.1,1.46v22.71l1.1,1.83,1.83,1.46v1.1l-.73.37h-11.72l-1.46-.37.73-1.46,2.2-2.2.37-3.3v-23.07l-.73-1.46-2.56-1.46.37-1.46,6.96-5.13,1.46-.73h1.46l.37,1.1.37,6.59,4.76-4.76,2.93-1.83,3.3-1.1,2.56-.37Z"/>
    <path class="cls-2" d="M322.48,363.78l1.83.37.37.37v7.69h8.42l1.1.37.37,2.2-.73,2.56h-9.16l.37,27.83.73,2.2.73,1.1,1.46.37,2.93-.73,1.83-1.1,1.46.37.37,1.1-1.46,1.83-4.03,2.56-2.56.73h-2.56l-2.56-1.1-1.83-1.83-1.46-3.3-.37-1.83v-28.2h-2.93l-1.1-.37v-4.39l4.76-1.46,1.83-2.2,1.46-4.39.73-.73Z"/>
    <path class="cls-4" d="M182.96,472.18h3.3l3.3.73,2.93,1.83,2.2,2.93.37,1.83-5.86,2.2-16.85,5.86h-1.1v-4.39l1.46-4.03,2.56-3.3,2.93-2.2,2.56-1.1,2.2-.37Z"/>
    <path class="cls-4" d="M494.6,376.23h4.03l3.66,1.1,2.56,1.83,2.2,3.66v.73l-14.65,5.13-8.06,2.93h-1.1l-.37-2.56.73-3.66,1.83-3.66,3.3-3.3,3.66-1.83,2.2-.37Z"/>
    <path class="cls-4" d="M425.39,472.18h3.3l3.3.73,2.93,1.83,1.83,2.2.73,1.46v1.1l-5.86,2.2-15.75,5.49-2.2.37v-3.66l.73-2.93,1.83-3.3,1.83-2.2,3.3-2.2,4.03-1.1Z"/>
    <path class="cls-4" d="M76.75,376.23h4.03l3.66,1.1,2.93,2.2,1.83,3.3v.73l-22.71,8.06-1.46-.37.37-4.76,1.46-3.3,2.2-2.93,2.56-2.2,3.3-1.46,1.83-.37Z"/>
    <path class="cls-4" d="M171.24,392.35h.73l1.46,5.49,1.1,5.49-2.93,1.83-4.03,1.83-3.66.73h-2.93l-3.66-1.1-2.2-1.83-.73-2.2.37-2.2,2.2-2.56,4.39-2.2,9.89-3.3Z"/>
  </g>
  <g id="Layer_2" data-name="Layer 2">
    <path class="cls-1" d="M383.27,230.8c-17.04-61.12,46.49-87.78,116.28-106.65,69.79-18.88,135.99,1.4,147.86,45.3,11.87,43.89-34.93,95.37-104.87,113.65-64.52,16.87-147.07-8.5-159.27-52.3Z"/>
    <path class="cls-3" d="M396.84,394.97c.29,0,.58-.5.87-.5-.29,0-.58.5-.87.5h0Z"/>
    <path class="cls-3" d="M400.12,391.69c.29,0,.58-.5.87-.5-.29,0-.58.5-.87.5h0Z"/>
    <path class="cls-3" d="M532.39,223.34c.29,0,.58-.5.87-.5-.29,0-.58.5-.87.5h0Z"/>
    <path class="cls-3" d="M534.57,80.14c.29,0,.58-.5.87-.5-.29,0-.58.5-.87.5h0Z"/>
    <path class="cls-3" d="M348.74,98.73c.29,0,.58-.5.87-.5-.29,0-.58.5-.87.5h0Z"/>
    <path class="cls-3" d="M338.9,98.73c.29,0,.58-.5.87-.5-.29,0-.58.5-.87.5h0Z"/>
    <path class="cls-3" d="M329.06,100.91c.29,0,.58-.5.87-.5-.29,0-.58.5-.87.5h0Z"/>
    <path class="cls-3" d="M333.44,106.38c.29,0,.58-.5.87-.5-.29,0-.58.5-.87.5h0Z"/>
    <path class="cls-3" d="M330.16,97.63c.29,0,.58-.5.87-.5-.29,0-.58.5-.87.5h0Z"/>
    <path class="cls-3" d="M570.65,6.9c.29,0,.58-.5.87-.5-.29,0-.58.5-.87.5h0Z"/>
    <path class="cls-3" d="M564.09,16.74c.29,0,.58-.5.87-.5-.29,0-.58.5-.87.5h0Z"/>
    <path class="cls-3" d="M555.34,28.76c.29,0,.58-.5.87-.5-.29,0-.58.5-.87.5h0Z"/>
    <path class="cls-3" d="M811.14,235.37c.29,0,.58-.5.87-.5-.29,0-.58.5-.87.5h0Z"/>
    <path class="cls-3" d="M509.43,220.06c.29,0,.58-.5.87-.5-.29,0-.58.5-.87.5h0Z"/>
    <path class="cls-3" d="M519.27,226.62c.29,0,.58-.5.87-.5-.29,0-.58.5-.87.5h0Z"/>
    <path class="cls-3" d="M520.36,208.04c.29,0,.58-.5.87-.5-.29,0-.58.5-.87.5h0Z"/>
    <path class="cls-3" d="M806.76,141.36c.29,0,.58-.5.87-.5-.29,0-.58.5-.87.5h0Z"/>
    <path class="cls-3" d="M393.56,409.18c.29,0,.58-.5.87-.5-.29,0-.58.5-.87.5h0Z"/>
    <path class="cls-3" d="M447.12,368.73c.29,0,.58-.5.87-.5-.29,0-.58.5-.87.5h0Z"/>
    <path class="cls-3" d="M406.68,433.23c.29,0,.58-.5.87-.5-.29,0-.58.5-.87.5h0Z"/>
  </g>
</svg>